<?xml version="1.0" encoding="utf-8"?>
<!-- Generator: Adobe Illustrator 17.0.0, SVG Export Plug-In . SVG Version: 6.00 Build 0)  -->
<!DOCTYPE svg PUBLIC "-//W3C//DTD SVG 1.1//EN" "http://www.w3.org/Graphics/SVG/1.1/DTD/svg11.dtd">
<svg version="1.1" id="Layer_1" xmlns="http://www.w3.org/2000/svg" xmlns:xlink="http://www.w3.org/1999/xlink" x="0px" y="0px"
	 width="216.965px" height="212.348px" viewBox="94.92 0 216.965 212.348" enable-background="new 94.92 0 216.965 212.348"
	 xml:space="preserve">
<g>
	<path fill-rule="evenodd" clip-rule="evenodd" fill="#008BD0" d="M198.974,131.4h3.965l-0.477,5.308
		c0,0.078-3.325,0.078-3.325,0.078L198.974,131.4z"/>
	<path fill-rule="evenodd" clip-rule="evenodd" fill="#008BD0" d="M200.564,0c38.669,0,70.293,29.721,70.371,66.09
		c0,36.381-31.461,66.016-70.133,66.016c-38.676,0-70.299-29.634-70.374-66.016C130.427,29.721,161.888,0,200.564,0z"/>
	<path fill-rule="evenodd" clip-rule="evenodd" fill="#D3E8F6" d="M145.248,25.279l-0.559,7.845c0,0,1.345,3.962,2.534,7.293
		c0.712,2.694,1.746,5.07,1.746,5.07s0.952,1.667,2.06,3.647c1.98,3.247,4.677,7.449,4.677,6.578c0-1.664,12.996,5.07,12.996,4.914
		c0,0.157-7.767,9.588-7.767,9.429c0,0.159,0.952,12.367,4.043,12.208c3.091-0.159,9.903,7.287,11.412,7.053
		c1.586-0.156-0.157,4.44,1.586,7.69c1.746,3.25,0.4,13.231,0.793,11.967c0.316-1.271,4.992,4.039,5.785,7.287
		c0.79,3.091,5.389,4.199,5.389,4.046c0,0.153,0.793-20.768,0.793-20.923c0,0.156,7.768-8.96,7.768-9.114
		c0,0,0.159-3.487,1.904-7.845c1.742-4.355,6.176-7.612,4.99-8.72c0,0-7.134-6.575-7.134-5.863c0,0.393-3.644,1.345-7.371-0.478
		c-3.646-1.82-7.29-6.416-7.29-5.307c0,0.156-3.087-1.827-6.578-2.538c-2.376-0.556-5.629,0.159-5.629,0.159s-2.139,0-4.278-1.427
		c-2.694-2.06-6.181-6.019-6.181-6.019s1.189-4.206,3.25-6.348c2.379-2.216,5.626,1.983,7.768-0.79
		c0.552-0.871,3.087,1.67,6.971-0.712c3.884-2.379,5.629,7.131,5.629,6.893c0,0.237-0.237-10.302-0.237-10.54
		c0,0.237,4.83-4.915,4.67-10.384c-0.153-5.389,6.189-14.74,6.189-14.34c0,0-4.043-2.694-4.44-5.47
		c-0.156-2.694-0.553,4.043-4.44,2.928l-6.419-1.817l4.833-2.781l3.728-2.136l-12.142-2.563c0,0-8.841,2.694-17.171,8.526
		C150.792,18.532,145.248,25.279,145.248,25.279z"/>
	<path fill-rule="evenodd" clip-rule="evenodd" fill="#D3E8F6" d="M219.106,2.376l-1.346,3.962l-0.634,4.358l5.626,1.111
		l-2.295,3.644l-3.094,3.25c0,0,3.487,5.707,1.105,5.707c-0.709,0-4.992,0-5.782,0.478c-0.79,0.549-1.511,4.433-2.697,2.932
		c0,0-3.088,3.094-0.556,2.932c0,0-0.79,4.199,1.742,5.782c2.697,1.667,7.293,0,7.293,0c1.746-0.153,3.172-6.181,1.427-5.942
		c-1.586,0.16,17.2,5.942,8.642,0.874c-8.48-5.074,0.396,0,0.396-3.968c0-2.06,2.773-0.79,4.833,0.159
		c2.372,1.112,5.866,2.379,5.866,2.379s4.833,3.41,5.783,4.677c1.745,1.82,0.159,6.734,3.253,6.734c0,0-11.573-6.334-11.021-2.847
		c0.396,2.136-7.924-0.793-7.924-0.793s-3.644-1.274-6.181-0.162c-2.538,0.955-5.074,2.775-5.074,3.487
		c0,1.826,0.4,1.982,0.637,1.826c-0.237,0.156-1.605-0.225-1.364-0.384c0,0-0.937,1.252-2.123,4.342
		c-1.346,3.487-2.538,6.579-2.538,6.579s1.589,2.135,3.091,4.517c1.983,3.331,4.286,6.977,4.286,6.977s3.478,0.709,6.335,1.264
		c2.773,0.556,5.229,1.031,5.47,1.031c0.949,0,1.109,5.866,2.139,6.419c0.949,0.552,1.901,4.521,2.457,4.914
		c0,0-1.746,5.067-1.746,6.893c0,3.487,1.983,7.134,1.983,7.134c0,0.156,5.392,4.124,5.392,3.965c0,0,2.694-3.644,5.467-7.059
		c2.694-3.484,5.785-6.575,5.785-6.179c0,0.871-0.241-5.703,2.139-10.78c0.955-1.979,2.853-3.959,4.599-4.752
		c1.586-0.712,1.586-3.803,1.982-7.056c0-0.953,1.505-2.217,1.739-3.328c2.142-19.257-0.79-5.074-1.189-7.053
		c-0.946-3.247-4.437-6.337-6.575-6.181c-2.298,0.316-2.935-0.156-3.884-1.109c-1.346-1.427-3.091-4.199-3.091-4.199
		c0,0.232-1.189-1.43-1.189-1.586c0,0,0.237,0.478,1.98,0.156c2.538-0.555,9.513,6.582,5.785,1.662c0,0-3.88-1.105-3.88-1.34
		c0,0.234,10.855,9.35,10.855,9.11c0,0.241,2.229-5.32,1.514-8.407c0,0-1.836-3.581-4.096-6.975
		c-2.136-3.197-4.686-6.197-5.339-6.965c-0.936-1.248-4.608-5.264-9.328-8.995c-4.855-3.836-10.912-7.29-14.168-8.735
		c0,0-2.626-1.246-5.894-2.489C222.424,3.11,219.106,2.376,219.106,2.376z"/>
	<path fill-rule="evenodd" clip-rule="evenodd" fill="#FFDC00" d="M201.753,144.316c1.898-45.965-53.893-56.112-89.237-107.938
		v109.68L201.753,144.316z"/>
	<path fill-rule="evenodd" clip-rule="evenodd" fill="#FFDC00" d="M200.717,143.76c-0.712-46.206,54.37-56.031,89.556-107.942
		v109.684L200.717,143.76z"/>
	<path fill-rule="evenodd" clip-rule="evenodd" fill="#008935" d="M201.435,146.536c-2.383,0,5.862-21.636,12.282-26.787
		c30.511-33.449,63.792-32.731,98.188-83.455c0,36.772,0,73.468-0.078,110.243C274.818,146.536,238.44,146.536,201.435,146.536z"/>
	<path fill-rule="evenodd" clip-rule="evenodd" fill="#008935" d="M201.591,146.536c2.216,0-5.704-21.636-11.886-26.787
		C160.221,86.3,128.126,87.017,94.92,36.294c0.075,36.772,0.075,73.468,0.075,110.243
		C130.742,146.536,165.85,146.536,201.591,146.536z"/>
	<path fill-rule="evenodd" clip-rule="evenodd" fill="#008BD0" d="M302.002,208.112c-1.983,0-3.647-0.949-4.83-2.692
		c-1.352-1.823-2.223-4.202-2.86-7.136c-0.472-2.928-0.794-6.338-0.794-9.748c0-2.772,0.082-5.548,0.322-7.926
		c0.312-2.454,0.793-4.752,1.423-6.731c0.718-1.905,1.667-3.488,2.697-4.677c1.03-1.037,2.454-1.746,4.04-1.746
		c1.192,0,2.216,0.475,3.168,1.105c0.953,0.64,1.901,1.983,2.698,3.413c0.79,1.586,1.423,3.724,1.901,6.337
		c0.319,2.617,0.709,6.026,0.709,9.751c0,2.535-0.234,5.151-0.472,7.446c-0.237,2.301-0.793,4.521-1.507,6.348
		c-0.631,1.898-1.583,3.565-2.613,4.511c-1.03,1.192-2.301,1.746-3.728,1.746H302.002z M302.002,175.062
		c-2.454,0-3.724,4.365-3.724,12.841c0,2.22,0.156,4.359,0.237,6.185c0.237,1.898,0.634,3.565,1.193,4.671
		c0.471,1.27,1.264,1.904,2.295,1.904c2.457-0.159,3.728-4.521,3.728-12.6c0-2.454-0.16-4.758-0.322-6.659
		c-0.309-1.977-0.715-3.565-1.264-4.512C303.585,175.699,302.798,175.062,302.002,175.062z M241.294,168.25h11.573v7.608h-6.974
		v9.114h6.496v7.605h-6.496V207.4h-4.599V168.25z M255.084,168.25h4.521v39.15h-4.521V168.25z M262.617,168.25h4.592v31.461h7.296
		v7.69h-11.889V168.25z M276.404,168.25h4.599v15.613h5.467V168.25h4.596v39.15h-4.596v-16.088h-5.551V207.4h-4.515V168.25z
		 M222.83,208.112c-1.98,0-3.646-0.949-4.836-2.692c-1.264-1.823-2.22-4.202-2.769-7.136c-0.555-2.928-0.874-6.338-0.874-9.748
		c0-2.772,0.159-5.548,0.396-7.926c0.241-2.454,0.711-4.752,1.348-6.731c0.715-1.905,1.661-3.488,2.769-4.677
		c1.033-1.037,2.379-1.746,3.965-1.746c1.268,0,2.219,0.475,3.25,1.105c0.953,0.64,1.898,1.983,2.617,3.413
		c0.79,1.586,1.505,3.724,1.901,6.337c0.393,2.617,0.715,6.026,0.715,9.751c0,2.535-0.162,5.151-0.396,7.446
		c-0.318,2.301-0.877,4.521-1.583,6.348c-0.637,1.898-1.515,3.565-2.538,4.511c-1.112,1.192-2.379,1.746-3.809,1.746H222.83z
		 M222.83,175.062c-2.457,0-3.724,4.365-3.724,12.841c0,2.22,0.078,4.359,0.241,6.185c0.231,1.898,0.631,3.565,1.186,4.671
		c0.555,1.27,1.346,1.904,2.298,1.904c2.457-0.159,3.724-4.521,3.724-12.6c0-2.454-0.078-4.758-0.315-6.659
		c-0.241-1.977-0.715-3.565-1.19-4.512C224.494,175.699,223.623,175.062,222.83,175.062z M163.474,168.25h12.357v7.608h-7.842v8.005
		h7.212v7.608h-7.212v8.239h7.842v7.69h-12.357V168.25z M178.451,168.25h6.263l5.548,29.243l0.078-29.243h3.962v39.15h-6.182
		l-5.626-29.959V207.4h-4.043V168.25z M207.692,180.61c0-1.665-0.313-3.01-0.868-3.878c-0.478-1.033-1.192-1.67-1.983-1.67
		c-0.796,0-1.505,0.637-1.976,1.67c-0.484,0.868-0.874,2.532-1.037,4.355c-0.157,1.901-0.234,4.358-0.234,7.134
		c0,8.083,1.03,12.282,3.006,12.282h0.481c0.79-0.159,1.505-0.793,1.98-1.583c0.318-0.953,0.631-2.301,0.631-3.887h4.758
		c0,2.301-0.237,4.524-0.715,6.341c-0.475,1.901-1.268,3.569-2.298,4.68c-1.108,1.346-2.535,2.058-4.277,2.058h-0.475
		c-1.749,0-3.169-0.712-4.281-2.217c-1.189-1.664-2.138-3.887-2.616-6.662c-0.555-2.928-1.027-6.34-1.027-10.062v-1.108
		c0-4.758,0.39-8.798,1.027-11.655c0.637-3.166,1.58-5.383,2.694-6.734c1.189-1.264,2.617-2.217,4.118-2.217
		c1.67,0,3.172,0.634,4.281,1.583c1.189,0.952,2.142,2.622,2.697,4.521c0.475,1.98,0.871,4.278,0.871,6.734L207.692,180.61z
		 M153.808,192.661c-0.403-0.163-0.878-0.241-1.352-0.241h-1.03V207.4h-4.517v-39.15h6.9c2.057,0,3.796,0.79,4.989,2.141
		c1.268,1.271,2.06,4.043,2.06,7.92c0,2.932-0.396,5.155-1.189,6.66c-0.79,1.583-1.824,2.778-3.01,3.091
		c1.105,0.159,1.905,0.793,2.376,1.823c0.474,0.874,0.871,2.06,0.952,3.169c0.078,1.189,0.316,3.406,0.475,6.503
		c0.078,3.087,0.478,5.862,0.715,7.842h-4.914c-0.162-0.874-0.237-3.016-0.396-6.025c-0.078-3.091-0.316-4.914-0.316-5.233
		c-0.081-1.661-0.4-2.691-0.874-3.087C154.52,192.892,154.202,192.736,153.808,192.661z M153.808,175.939
		c-0.165,0-0.322-0.082-0.481-0.082h-1.901v8.954h2.142c1.823-0.159,2.532-1.745,2.532-4.676c0-1.346-0.312-2.535-0.709-3.091
		C155.073,176.492,154.52,176.015,153.808,175.939z M128.289,168.25h4.433v23.537c0,2.613,0.318,4.833,0.874,6.338
		c0.555,1.586,1.348,2.379,2.457,2.379c2.139,0,3.328-3.01,3.328-8.872V168.25h4.517v24.327c0,4.599-0.634,8.48-1.901,11.177
		c-1.268,2.772-3.331,4.358-5.944,4.358c-1.189,0-2.383-0.316-3.331-0.871c-0.949-0.715-1.742-1.821-2.454-3.169
		c-0.634-1.274-1.19-3.016-1.43-4.839c-0.316-1.739-0.55-3.877-0.55-6.178V168.25z M95.472,168.25h4.602v31.461h7.29v7.69H95.472
		V168.25z M117.268,208.112c-1.983,0-3.647-0.949-4.833-2.692c-1.268-1.823-2.216-4.202-2.773-7.136
		c-0.555-2.928-0.871-6.338-0.871-9.748c0-2.772,0.078-5.548,0.394-7.926c0.24-2.454,0.793-4.752,1.348-6.731
		c0.712-1.905,1.664-3.488,2.694-4.677c1.109-1.037,2.454-1.746,4.04-1.746c1.192,0,2.219,0.475,3.172,1.105
		c0.955,0.64,1.898,1.983,2.691,3.413c0.796,1.586,1.43,3.724,1.905,6.337c0.393,2.617,0.718,6.026,0.718,9.751
		c0,2.535-0.162,5.151-0.48,7.446c-0.237,2.301-0.787,4.521-1.505,6.348c-0.637,1.898-1.508,3.565-2.617,4.511
		c-1.027,1.192-2.295,1.746-3.724,1.746H117.268z M117.268,175.062c-2.457,0-3.724,4.365-3.724,12.841
		c0,2.22,0.159,4.359,0.234,6.185c0.243,1.898,0.637,3.565,1.192,4.671c0.478,1.27,1.352,1.904,2.298,1.904
		c2.46-0.159,3.728-4.521,3.728-12.6c0-2.454-0.156-4.758-0.318-6.659c-0.319-1.977-0.709-3.565-1.271-4.512
		C118.935,175.699,118.142,175.062,117.268,175.062z M201.119,208.827h8.158v3.013h-8.158V208.827z"/>
	<path fill-rule="evenodd" clip-rule="evenodd" fill="#008BD0" d="M111.058,155.524c-0.287-2.092-2.734-3.4-6.631-3.4
		c-4.74,0-7.562,1.951-7.562,5.276c0,3.288,2.801,5.277,7.362,5.277c3.939,0,6.762-1.602,6.896-3.868h-2.6
		c-0.181,1.433-1.849,2.367-4.184,2.367c-2.916,0-4.761-1.42-4.761-3.844c0-2.354,1.733-3.718,4.805-3.718
		c2.291,0,3.759,0.696,4.049,1.911H111.058z"/>
	<path fill-rule="evenodd" clip-rule="evenodd" fill="#008BD0" d="M139.822,153.573c3.069,0,4.961,1.377,4.961,3.828
		c0,2.438-1.892,3.828-4.961,3.828s-4.961-1.39-4.961-3.828C134.861,154.95,136.774,153.573,139.822,153.573z M139.822,152.124
		c-4.74,0-7.678,1.977-7.678,5.276c0,3.3,2.938,5.277,7.678,5.277c4.739,0,7.677-1.989,7.677-5.277
		C147.498,154.116,144.56,152.124,139.822,152.124z"/>
	<polygon fill-rule="evenodd" clip-rule="evenodd" fill="#008BD0" points="169.318,152.39 169.318,162.399 179.887,162.399 
		179.887,160.882 171.991,160.882 171.991,152.39 	"/>
	<path fill-rule="evenodd" clip-rule="evenodd" fill="#008BD0" d="M200.773,152.39v10.009h11.767v-1.504h-9.141v-3.02h8.163v-1.405
		h-8.163v-2.619h8.854v-1.461H200.773z M207.045,148.993l-2.18,2.435h1.402l3.251-2.435H207.045z"/>
	<path fill-rule="evenodd" clip-rule="evenodd" fill="#008BD0" d="M248.031,155.452c-0.465-2.06-2.956-3.328-6.871-3.328
		c-4.584,0-7.609,2.048-7.609,5.276c0,3.203,3.091,5.264,7.431,5.264c2.136,0,3.846-0.528,5.026-1.533l0.447,1.268h1.754v-5.4
		h-6.828v1.376h4.383c-0.112,1.739-1.913,2.801-4.496,2.801c-2.978,0-4.982-1.364-4.982-3.815c0-2.423,1.867-3.8,5.048-3.8
		c2.161,0,3.653,0.708,4.053,1.892H248.031z"/>
	<rect x="270.55" y="152.39" fill-rule="evenodd" clip-rule="evenodd" fill="#008BD0" width="2.673" height="10.009"/>
	<path fill-rule="evenodd" clip-rule="evenodd" fill="#008BD0" d="M302.789,153.573c3.072,0,4.964,1.377,4.964,3.828
		c0,2.438-1.892,3.828-4.964,3.828c-3.069,0-4.961-1.39-4.961-3.828C297.828,154.95,299.742,153.573,302.789,153.573z
		 M302.789,152.124c-4.736,0-7.677,1.977-7.677,5.276c0,3.3,2.94,5.277,7.677,5.277c4.74,0,7.678-1.989,7.678-5.277
		C310.466,154.116,307.528,152.124,302.789,152.124z"/>
</g>
</svg>
