<?xml version="1.0" encoding="utf-8"?>
<!-- Generator: Adobe Illustrator 17.0.0, SVG Export Plug-In . SVG Version: 6.00 Build 0)  -->
<!DOCTYPE svg PUBLIC "-//W3C//DTD SVG 1.1//EN" "http://www.w3.org/Graphics/SVG/1.1/DTD/svg11.dtd">
<svg version="1.1" id="Layer_1" xmlns="http://www.w3.org/2000/svg" xmlns:xlink="http://www.w3.org/1999/xlink" x="0px" y="0px"
	 width="144.697px" height="97.615px" viewBox="-14.709 0 144.697 97.615" enable-background="new -14.709 0 144.697 97.615"
	 xml:space="preserve">
<g>
	<path fill-rule="evenodd" clip-rule="evenodd" fill="#008BD0" d="M54.662,87.519h2.645l-0.318,3.54
		c0,0.052-2.218,0.052-2.218,0.052L54.662,87.519z"/>
	<path fill-rule="evenodd" clip-rule="evenodd" fill="#008BD0" d="M55.722-0.129c25.793,0,46.887,19.825,46.939,44.084
		c0,24.267-20.986,44.034-46.781,44.034c-25.798,0-46.891-19.767-46.941-44.034C8.939,19.696,29.924-0.129,55.722-0.129z"/>
	<path fill-rule="evenodd" clip-rule="evenodd" fill="#D3E8F6" d="M18.825,16.733l-0.373,5.233c0,0,0.897,2.643,1.691,4.865
		c0.475,1.797,1.164,3.382,1.164,3.382s0.635,1.112,1.374,2.433c1.321,2.166,3.12,4.969,3.12,4.388c0-1.11,8.669,3.382,8.669,3.278
		c0,0.104-5.181,6.395-5.181,6.289c0,0.106,0.635,8.249,2.696,8.143c2.062-0.106,6.606,4.86,7.612,4.704
		c1.058-0.104-0.104,2.961,1.058,5.129c1.164,2.168,0.267,8.826,0.529,7.982c0.211-0.848,3.33,2.694,3.859,4.86
		c0.527,2.062,3.595,2.801,3.595,2.699c0,0.102,0.529-13.852,0.529-13.956c0,0.104,5.181-5.977,5.181-6.079
		c0,0,0.106-2.326,1.27-5.233c1.162-2.905,4.119-5.077,3.328-5.816c0,0-4.759-4.386-4.759-3.911c0,0.262-2.43,0.897-4.917-0.319
		c-2.432-1.214-4.863-4.279-4.863-3.54c0,0.104-2.059-1.219-4.388-1.693c-1.585-0.371-3.755,0.106-3.755,0.106s-1.427,0-2.853-0.952
		c-1.797-1.374-4.123-4.015-4.123-4.015s0.793-2.805,2.168-4.234c1.587-1.478,3.753,1.323,5.181-0.527
		c0.368-0.581,2.059,1.114,4.65-0.475c2.591-1.587,3.755,4.756,3.755,4.598c0,0.158-0.158-6.872-0.158-7.03
		c0,0.158,3.222-3.278,3.115-6.926c-0.102-3.595,4.128-9.832,4.128-9.565c0,0-2.697-1.797-2.961-3.649
		c-0.104-1.797-0.369,2.697-2.961,1.953l-4.281-1.212l3.224-1.855l2.486-1.424l-8.099-1.71c0,0-5.897,1.797-11.453,5.687
		C22.523,12.233,18.825,16.733,18.825,16.733z"/>
	<path fill-rule="evenodd" clip-rule="evenodd" fill="#D3E8F6" d="M68.09,1.456l-0.898,2.643L66.77,7.006l3.753,0.741l-1.531,2.43
		l-2.064,2.168c0,0,2.326,3.807,0.737,3.807c-0.473,0-3.33,0-3.857,0.319c-0.527,0.366-1.008,2.957-1.799,1.955
		c0,0-2.06,2.064-0.371,1.955c0,0-0.527,2.801,1.162,3.857c1.799,1.112,4.865,0,4.865,0c1.164-0.102,2.116-4.123,0.952-3.963
		c-1.058,0.107,11.473,3.963,5.765,0.583c-5.656-3.384,0.264,0,0.264-2.647c0-1.374,1.849-0.527,3.224,0.106
		c1.582,0.742,3.913,1.587,3.913,1.587s3.224,2.274,3.857,3.12c1.164,1.214,0.106,4.491,2.17,4.491c0,0-7.72-4.225-7.351-1.899
		c0.264,1.424-5.285-0.529-5.285-0.529s-2.43-0.85-4.123-0.108c-1.693,0.637-3.384,1.851-3.384,2.326
		c0,1.218,0.267,1.322,0.425,1.218c-0.158,0.104-1.07-0.15-0.91-0.256c0,0-0.625,0.835-1.416,2.896
		c-0.898,2.326-1.693,4.388-1.693,4.388s1.06,1.424,2.062,3.013c1.323,2.222,2.859,4.654,2.859,4.654s2.32,0.473,4.225,0.843
		c1.849,0.371,3.488,0.688,3.649,0.688c0.633,0,0.739,3.913,1.427,4.281c0.633,0.368,1.268,3.015,1.639,3.278
		c0,0-1.164,3.38-1.164,4.598c0,2.326,1.323,4.759,1.323,4.759c0,0.104,3.596,2.751,3.596,2.645c0,0,1.797-2.43,3.647-4.708
		c1.797-2.324,3.859-4.386,3.859-4.122c0,0.581-0.16-3.804,1.427-7.191c0.637-1.32,1.903-2.641,3.068-3.169
		c1.058-0.475,1.058-2.537,1.322-4.706c0-0.635,1.004-1.479,1.16-2.22c1.429-12.845-0.527-3.384-0.793-4.705
		c-0.631-2.166-2.959-4.227-4.386-4.123c-1.533,0.211-1.958-0.104-2.59-0.739c-0.898-0.952-2.062-2.801-2.062-2.801
		c0,0.155-0.793-0.954-0.793-1.058c0,0,0.158,0.319,1.321,0.104c1.693-0.371,6.345,4.39,3.859,1.108c0,0-2.588-0.737-2.588-0.894
		c0,0.156,7.241,6.237,7.241,6.076c0,0.16,1.487-3.548,1.01-5.608c0,0-1.225-2.389-2.732-4.653
		c-1.424-2.132-3.126-4.134-3.561-4.646c-0.624-0.833-3.073-3.511-6.222-6C82.63,7.7,78.59,5.396,76.418,4.432
		c0,0-1.751-0.831-3.932-1.66C70.304,1.946,68.09,1.456,68.09,1.456z"/>
	<path fill-rule="evenodd" clip-rule="evenodd" fill="#FFDC00" d="M56.516,96.134c1.266-30.66-35.948-37.428-59.523-71.997v73.159
		L56.516,96.134z"/>
	<path fill-rule="evenodd" clip-rule="evenodd" fill="#FFDC00" d="M55.824,95.763c-0.475-30.82,36.266-37.374,59.736-72v73.162
		L55.824,95.763z"/>
	<path fill-rule="evenodd" clip-rule="evenodd" fill="#008935" d="M56.304,97.615c-1.589,0,3.91-14.432,8.192-17.868
		c20.352-22.311,42.551-21.833,65.494-55.667c0,24.528,0,49.005-0.052,73.535C105.252,97.615,80.987,97.615,56.304,97.615z"/>
	<path fill-rule="evenodd" clip-rule="evenodd" fill="#008935" d="M56.408,97.615c1.478,0-3.805-14.432-7.928-17.868
		C28.812,57.436,7.405,57.914-14.745,24.08c0.05,24.528,0.05,49.005,0.05,73.535C9.149,97.615,32.567,97.615,56.408,97.615z"/>
</g>
</svg>
